<svg width="40" height="40" viewBox="0 0 40 40" fill="none" xmlns="http://www.w3.org/2000/svg">
<path d="M20 0C8.972 0 0 8.972 0 20C0 31.028 8.972 40 20 40C31.028 40 40 31.028 40 20C40 8.972 31.028 0 20 0ZM20 36.3636C10.9771 36.3636 3.63636 29.0229 3.63636 20C3.63636 10.9771 10.9771 3.63636 20 3.63636C29.0229 3.63636 36.3636 10.9771 36.3636 20C36.3636 29.0229 29.0229 36.3636 20 36.3636Z" fill="#6B6B6B"/>
<path d="M24.8856 24.8855C22.1915 27.5793 17.8085 27.5794 15.1145 24.8856C14.4046 24.1755 13.2533 24.1755 12.5433 24.8856C11.8332 25.5956 11.8332 26.7468 12.5433 27.4568C14.5994 29.513 17.2992 30.5406 20.0001 30.5406C22.7003 30.5406 25.4013 29.5125 27.457 27.4568C28.167 26.7469 28.167 25.5956 27.457 24.8856C26.7468 24.1754 25.5955 24.1755 24.8856 24.8855Z" fill="#6B6B6B"/>
<path d="M13.9564 17.8351C14.4085 17.3842 14.6667 16.7588 14.6667 16.1212C14.6667 15.4836 14.4085 14.8582 13.9564 14.4073C13.5055 13.9564 12.88 13.697 12.2424 13.697C11.6035 13.697 10.9794 13.9564 10.5284 14.4073C10.0764 14.8582 9.81818 15.4836 9.81818 16.1212C9.81818 16.7588 10.0764 17.3842 10.5284 17.8351C10.9794 18.2873 11.6049 18.5454 12.2424 18.5454C12.88 18.5454 13.5055 18.2873 13.9564 17.8351Z" fill="#6B6B6B"/>
<path d="M27.7576 13.697C27.12 13.697 26.4945 13.9564 26.0435 14.4073C25.5927 14.8582 25.3333 15.4824 25.3333 16.1212C25.3333 16.76 25.5927 17.3842 26.0435 17.8351C26.4945 18.2873 27.12 18.5454 27.7576 18.5454C28.3951 18.5454 29.0206 18.2873 29.4715 17.8351C29.9224 17.3842 30.1818 16.76 30.1818 16.1212C30.1818 15.4836 29.9223 14.8582 29.4715 14.4073C29.0206 13.9564 28.3951 13.697 27.7576 13.697Z" fill="#6B6B6B"/>
</svg>
