<svg width="40" height="40" viewBox="0 0 40 40" fill="none" xmlns="http://www.w3.org/2000/svg">
<path d="M20 0C8.972 0 0 8.972 0 20C0 31.028 8.972 40 20 40C31.028 40 40 31.028 40 20C40 8.972 31.0281 0 20 0ZM20 36.3636C10.9771 36.3636 3.63636 29.023 3.63636 20C3.63636 10.977 10.9771 3.63636 20 3.63636C29.0229 3.63636 36.3636 10.9771 36.3636 20C36.3636 29.0229 29.0229 36.3636 20 36.3636Z" fill="#6B6B6B"/>
<path d="M19.9999 21.7967C19.9998 21.7967 20 21.7967 19.9999 21.7967C17.1832 21.7967 14.5348 22.8937 12.5432 24.8855C11.8331 25.5954 11.8331 26.7467 12.5432 27.4567C12.8982 27.8118 13.3635 27.9893 13.8289 27.9893C14.2942 27.9893 14.7595 27.8118 15.1144 27.4567C16.4194 26.1518 18.1544 25.4332 19.9999 25.4332C21.8453 25.4332 23.5804 26.1519 24.8853 27.4567C25.5953 28.1667 26.7465 28.1667 27.4566 27.4567C28.1667 26.7468 28.1667 25.5955 27.4566 24.8855C25.4648 22.8937 22.8167 21.7967 19.9999 21.7967Z" fill="#6B6B6B"/>
<path d="M13.9564 17.8351C14.4085 17.3842 14.6667 16.7588 14.6667 16.1212C14.6667 15.4836 14.4085 14.8582 13.9564 14.4071C13.5055 13.9564 12.88 13.697 12.2424 13.697C11.6036 13.697 10.9794 13.9564 10.5285 14.4071C10.0776 14.8582 9.81818 15.4836 9.81818 16.1212C9.81818 16.7588 10.0776 17.3842 10.5285 17.8351C10.9794 18.2861 11.6048 18.5454 12.2424 18.5454C12.88 18.5454 13.5055 18.2861 13.9564 17.8351Z" fill="#6B6B6B"/>
<path d="M27.7576 13.697C27.1188 13.697 26.4945 13.9564 26.0436 14.4071C25.5915 14.8582 25.3333 15.4836 25.3333 16.1212C25.3333 16.7588 25.5915 17.3842 26.0436 17.8351C26.4945 18.2861 27.12 18.5454 27.7576 18.5454C28.3952 18.5454 29.0206 18.2859 29.4715 17.8351C29.9236 17.3842 30.1818 16.7588 30.1818 16.1212C30.1818 15.4836 29.9236 14.8582 29.4715 14.4071C29.0206 13.9564 28.3952 13.697 27.7576 13.697Z" fill="#6B6B6B"/>
</svg>
