<svg width="26" height="26" viewBox="0 0 26 26" fill="none" xmlns="http://www.w3.org/2000/svg">
<g clip-path="url(#clip0)">
<path d="M21.6294 23.3518V25.5517C21.6294 25.7994 21.4288 26 21.1811 26H4.81901C4.57134 26 4.37073 25.7994 4.37073 25.5517V23.3518C4.37073 21.6601 5.37655 20.2027 6.8228 19.5454C6.2327 19.0759 5.33329 18.4448 4.67892 17.0872C3.76752 15.1989 3.92352 12.9713 5.08461 11.2276C5.71556 10.2806 6.05177 9.16892 6.05177 8.03142V5.60345C6.05177 2.50866 8.56043 0 11.6552 0H14.3449C17.4397 0 19.9483 2.50866 19.9483 5.60345C19.9483 8.1747 19.8855 8.67823 20.1954 9.70069C20.6328 11.1464 21.2104 11.3253 21.6557 12.7966C22.3556 15.1094 21.5814 17.6316 19.6738 19.1503L19.1773 19.5454C20.6235 20.2027 21.6294 21.6601 21.6294 23.3518Z" fill="#FFDFBA"/>
<path d="M21.6292 23.3518V25.5517C21.6292 25.7993 21.4285 26 21.181 26H4.81888C4.57132 26 4.37061 25.7993 4.37061 25.5517V23.3518C4.37061 21.0453 6.24042 19.1733 8.5491 19.1733C8.89259 19.1733 9.21871 19.0988 9.51177 18.9654L9.52578 18.9957L12.7255 21.4729C12.8871 21.5979 13.1128 21.5979 13.2744 21.4729L16.4741 18.9957L16.4881 18.9654C16.7811 19.0988 17.1072 19.1733 17.4507 19.1733C19.7504 19.1733 21.6292 21.0364 21.6292 23.3518Z" fill="#FFAA64"/>
<path d="M18.1232 8.19549C18.3612 8.20905 18.5475 8.40461 18.5475 8.64299V11.3263C18.5475 13.6388 17.1326 15.6207 15.121 16.4534C11.4834 17.9634 7.45264 15.2809 7.45264 11.3263V8.68199C7.45264 8.41924 7.67767 8.21163 7.93935 8.23533C10.6283 8.47914 13.2762 7.80011 15.4997 6.3022C15.7526 6.13186 16.1008 6.25805 16.1806 6.55234C16.4572 7.57183 17.2116 8.14355 18.1232 8.19549Z" fill="#FFEBD2"/>
<path d="M19.6739 19.1503L19.1774 19.5454C18.6512 19.3067 18.0668 19.1733 17.451 19.1733C16.1718 19.1733 15.1295 18.1403 15.1295 16.8569V16.4741L15.1211 16.4534C17.1327 15.6207 18.5476 13.6388 18.5476 11.3263V8.64298C18.5476 8.40461 18.3612 8.20905 18.1233 8.19549C17.2173 8.14388 16.4591 7.57838 16.1807 6.55239C16.1009 6.2581 15.7527 6.13191 15.4998 6.30226C13.2777 7.79916 10.63 8.47931 7.93945 8.23539C7.67777 8.21169 7.45273 8.41929 7.45273 8.68204V11.3263C7.45273 13.6389 8.8676 15.6208 10.8792 16.4535L10.8708 16.4742V16.8569C10.8708 18.1402 9.82882 19.1734 8.54933 19.1734C7.93351 19.1734 7.34907 19.3067 6.82291 19.5454L6.32644 19.1504C3.91634 17.23 3.3797 13.7882 5.08472 11.2277C5.71567 10.2807 6.05187 9.16898 6.05187 8.03148V5.60345C6.05187 2.50878 8.56065 0 11.6553 0H14.345C17.4396 0 19.9484 2.50878 19.9484 5.60345V8.03142C19.9484 9.16758 20.2846 10.2806 20.9156 11.2276C22.6268 13.7975 22.0748 17.2389 19.6739 19.1503Z" fill="#42434D"/>
<path d="M15.1929 17.3942C13.8124 17.9721 12.2952 18.0169 10.8076 17.3942C10.8836 17.079 10.8709 16.8748 10.8709 16.4741L10.8793 16.4534C12.2288 17.0135 13.7691 17.0146 15.1212 16.4534L15.1296 16.4741C15.1296 16.875 15.1169 17.0791 15.1929 17.3942Z" fill="#FFD6A6"/>
<path d="M16.8761 0.603043C17.4483 0.893302 17.1996 1.76671 16.5608 1.70625C16.3847 1.68955 16.2062 1.68103 16.0257 1.68103H13.336C10.2413 1.68103 7.73257 4.18981 7.73257 7.28448V7.96631C7.73257 8.36886 7.4524 8.35586 7.4524 8.68198C7.4524 11.6418 7.46439 11.4545 7.42097 11.5822C6.98138 12.8753 6.45347 13.0625 6.0252 14.4776C5.79193 15.2484 5.72301 16.0422 5.80381 16.8125C5.86976 17.4412 4.99434 17.742 4.6787 17.0872C3.77379 15.2124 3.91551 12.983 5.08438 11.2276C5.71533 10.2806 6.05154 9.16892 6.05154 8.03142V5.60345C6.05154 2.50878 8.56032 0 11.655 0H14.3446C15.2556 0 16.1157 0.217358 16.8761 0.603043Z" fill="#4D4E59"/>
<path d="M11.9366 15.0424C12.7737 15.6027 12.1357 16.8988 11.1851 16.5653C9.09585 15.8321 7.45264 13.8822 7.45264 11.3262V8.68193C7.45264 8.41913 7.67789 8.2118 7.93958 8.23534C8.1543 8.25484 8.39009 8.27019 8.64455 8.27798C9.10509 8.29199 9.46988 8.67229 9.46988 9.13307V10.4297C9.46988 12.3812 10.4648 14.0573 11.9366 15.0424Z" fill="#FFF3E4"/>
<path d="M10.45 19.7112C10.7159 19.9171 10.5754 20.3488 10.239 20.35C7.86693 20.3589 6.05164 22.2636 6.05164 24.5285V26H4.81888C4.57132 26 4.37061 25.7993 4.37061 25.5517V23.3518C4.37061 21.0453 6.24048 19.1733 8.5491 19.1733C8.89259 19.1733 9.21871 19.0988 9.51177 18.9654L9.52578 18.9957L10.45 19.7112Z" fill="#FFBD7B"/>
<path d="M15.5501 19.7112C15.2842 19.9171 15.4247 20.3488 15.7611 20.35C18.1332 20.3589 19.9485 22.2636 19.9485 24.5285V26H21.1812C21.4288 26 21.6295 25.7993 21.6295 25.5517V23.3518C21.6295 21.0453 19.7596 19.1733 17.451 19.1733C17.1075 19.1733 16.7814 19.0988 16.4883 18.9654L16.4743 18.9957L15.5501 19.7112Z" fill="#FAA157"/>
</g>
<defs>
<clipPath id="clip0">
<rect width="26" height="26" fill="white"/>
</clipPath>
</defs>
</svg>
