<svg width="39" height="28" viewBox="0 0 39 28" fill="none" xmlns="http://www.w3.org/2000/svg">
<path d="M38.0575 22.452C36.5404 20.9655 34.7482 19.8694 32.7311 19.1949C32.3509 19.0675 31.9304 19.1486 31.6282 19.4074C31.4964 19.5202 26.6472 24.0373 19.5027 22.1725C19.4033 22.1444 19.2996 22.1301 19.1942 22.1301C19.0888 22.1301 18.9836 22.1444 18.8842 22.1725C11.7398 24.0373 6.89062 19.5202 6.75884 19.4074C6.45632 19.1489 6.03607 19.0678 5.65592 19.1949C3.63884 19.8694 1.84664 20.9655 0.329175 22.452C0.118615 22.6589 0 22.9396 0 23.2318C0 23.524 0.118608 23.8044 0.329455 24.011C2.95501 26.5835 6.44572 28.0001 10.1587 28.0001C13.5088 28.0001 16.6778 26.847 19.1936 24.7323C21.7095 26.847 24.8785 28.0001 28.2285 28.0001C31.9416 28.0001 35.4323 26.5835 38.0578 24.011C38.2687 23.8044 38.3873 23.524 38.3873 23.2318C38.387 22.9396 38.2687 22.6589 38.0575 22.452Z" fill="#504678"/>
<path d="M38.0575 22.452C36.5403 20.9655 34.7481 19.8694 32.731 19.1949C32.3509 19.0675 31.9304 19.1486 31.6281 19.4074C31.4963 19.5202 26.6471 24.0374 19.5027 22.1725C19.4033 22.1444 19.2996 22.1301 19.1942 22.1301L19.1936 24.7323C21.7094 26.847 24.8784 28.0004 28.2282 28.0004C31.9412 28.0004 35.4322 26.5835 38.0578 24.011C38.2686 23.8044 38.3872 23.5243 38.3872 23.2321C38.387 22.9396 38.2686 22.6589 38.0575 22.452Z" fill="#504678"/>
<path d="M37.0602 12.2015C34.6596 11.5764 32.1105 11.527 29.6872 12.0595C29.295 12.1457 28.9796 12.4303 28.8599 12.8061C28.337 14.4459 27.0493 17.3884 23.9121 19.747C22.4932 20.8136 20.907 21.6001 19.1939 22.0874C17.4804 21.6001 15.8942 20.8136 14.4753 19.747C11.3381 17.3884 10.0504 14.4459 9.52756 12.8061C9.40782 12.4303 9.09241 12.1457 8.70022 12.0595C6.27692 11.527 3.72813 11.5762 1.32746 12.2015C0.832425 12.3175 0.4646 12.7539 0.4646 13.2741C0.4646 13.3703 0.477483 13.4663 0.502979 13.5595C1.65175 17.7569 4.45607 20.931 7.7239 22.7793C10.9241 24.59 15.0147 25.3824 19.1939 24.3683C23.373 25.3821 27.4636 24.59 30.6638 22.7793C33.9316 20.931 36.736 17.7569 37.8847 13.5595C37.9102 13.4663 37.9231 13.3703 37.9231 13.2741C37.9228 12.7539 37.555 12.3175 37.0602 12.2015Z" fill="#5FE1BA"/>
<path d="M37.06 12.2015C34.6593 11.5764 32.1103 11.527 29.687 12.0595C29.2948 12.1457 28.9794 12.4303 28.8596 12.8061C28.3368 14.4459 27.0491 17.3884 23.9119 19.747C22.4929 20.8136 20.9067 21.6001 19.1936 22.0874V24.3683C23.3727 25.3821 27.463 24.59 30.6636 22.7793C33.9311 20.931 36.7357 17.7569 37.8845 13.5595C37.91 13.4663 37.9229 13.3703 37.9229 13.2741C37.9226 12.7539 37.5547 12.3175 37.06 12.2015Z" fill="#5FE1BA"/>
<path d="M31.1965 4.42057C31.0358 3.83308 30.4193 3.48419 29.8194 3.64166C27.1248 4.34871 24.6373 5.72408 22.626 7.61901C22.3364 7.89184 22.2175 8.29519 22.3137 8.67749C22.6761 10.1149 23.339 13.66 21.617 17.7334C21.0171 19.1522 20.2038 20.4516 19.1937 21.61C18.1836 20.4516 17.3703 19.1522 16.7704 17.7334C15.0484 13.66 15.7113 10.1149 16.0737 8.67749C16.1699 8.29519 16.0511 7.89184 15.7614 7.61901C13.7501 5.72408 11.2626 4.34871 8.568 3.64166C7.96812 3.48419 7.35162 3.83308 7.19091 4.42057C5.96336 8.90738 6.82909 13.3139 8.84502 16.7349C10.861 20.156 14.3225 23.0934 18.9021 24.2962C18.9989 24.3217 19.0966 24.3338 19.1931 24.3338C19.29 24.3338 19.3888 24.3217 19.4856 24.2962C24.0649 23.0937 27.5264 20.156 29.5424 16.7349C31.5583 13.3139 32.424 8.90738 31.1965 4.42057Z" fill="#98F1BE"/>
<path d="M31.1965 4.42057C31.0358 3.83308 30.4193 3.48419 29.8194 3.64166C27.1248 4.34871 24.6373 5.72408 22.626 7.61901C22.3363 7.89184 22.2174 8.29519 22.3137 8.67749C22.6761 10.1149 23.339 13.66 21.617 17.7334C21.0171 19.1522 20.2038 20.4516 19.1937 21.61L19.1931 24.3338C19.2897 24.3338 19.3888 24.3217 19.4856 24.2962C24.0649 23.0937 27.5264 20.156 29.5424 16.7349C31.5583 13.3139 32.424 8.90738 31.1965 4.42057Z" fill="#6FC193"/>
<path d="M19.1937 24.3338C18.8955 24.3338 18.6087 24.2176 18.3979 24.011C15.4543 21.1272 13.3909 16.9606 13.3909 12.167C13.3909 7.37538 15.4521 3.20911 18.3979 0.322791C18.6087 0.116203 18.8947 0 19.1929 0C19.4911 0 19.7779 0.116203 19.9887 0.322791C22.9328 3.20743 24.9957 7.37313 24.9957 12.167C24.9957 16.9617 22.9314 21.128 19.9887 24.011C19.7779 24.2178 19.492 24.3338 19.1937 24.3338Z" fill="#92D2AE"/>
<path d="M19.1937 24.3338L19.1931 0C19.4913 0 19.7781 0.116203 19.989 0.322791C22.9331 3.20743 24.9957 7.37313 24.9957 12.167C24.9957 16.9617 22.9314 21.128 19.989 24.011C19.7778 24.2178 19.4919 24.3338 19.1937 24.3338Z" fill="#78C89A"/>
</svg>
