<svg width="376" height="370" viewBox="0 0 376 370" fill="none" xmlns="http://www.w3.org/2000/svg">
<path opacity="0.7" d="M51.0835 119.652C51.0835 119.652 30.1178 173.796 59.5812 228.316C89.0445 282.836 149.731 311.637 198.303 336.265C246.874 360.893 297.311 348.899 321.277 308.562C345.243 268.224 312.373 239.43 312.328 181.91C312.283 124.389 320.939 109.161 289.768 60.567C258.598 11.9728 182.187 1.21168 124.404 37.255C66.6199 73.2984 51.0835 119.652 51.0835 119.652Z" fill="white"/>
<path d="M301.966 58.5066L301.545 58.123C262.764 23.2077 211.259 21.6285 173.705 59.221C154.153 78.8106 119.418 75.0656 94.5716 82.1494C8.93382 106.582 23.7482 222.811 66.0633 279.008C104.25 329.708 186.992 341.168 242.58 316.217C291.46 294.296 325.827 245.326 338.084 194.115C339.307 188.986 340.31 183.805 341.092 178.571C347.514 134.97 335.144 88.6768 301.966 58.5066Z" fill="#92E3A9"/>
<path opacity="0.7" d="M301.966 58.5066L301.545 58.123C262.764 23.2077 211.259 21.6285 173.705 59.221C154.153 78.8106 119.418 75.0656 94.5716 82.1494C8.93382 106.582 23.7482 222.811 66.0633 279.008C104.25 329.708 186.992 341.168 242.58 316.217C291.46 294.296 325.827 245.326 338.084 194.115C339.307 188.986 340.31 183.805 341.092 178.571C347.514 134.97 335.144 88.6768 301.966 58.5066Z" fill="white"/>
<path d="M50.211 108.086C50.211 108.086 52.5497 99.9643 68.3116 99.9192C84.0736 99.8741 93.3232 114.155 93.3232 114.155C93.3232 114.155 99.9332 107.936 107.927 112.087C115.921 116.238 115.891 122.351 115.891 122.351L181.54 127.615H38.8333" stroke="#263238" stroke-linecap="round" stroke-linejoin="round"/>
<path d="M348.612 162.034C348.612 162.034 346.273 153.905 330.504 153.86C314.735 153.815 305.5 168.103 305.5 168.103C305.5 168.103 298.89 161.884 290.896 166.035C282.902 170.186 282.932 172.54 282.932 172.54H262.403" stroke="#263238" stroke-linecap="round" stroke-linejoin="round"/>
<path d="M25.989 158.086C25.989 158.086 28.3277 149.965 44.0972 149.92C59.8666 149.875 69.1012 164.163 69.1012 164.163C69.1012 164.163 75.7113 157.944 83.705 162.095C91.6988 166.246 91.6687 168.592 91.6687 168.592H112.198" stroke="#263238" stroke-linecap="round" stroke-linejoin="round"/>
<path d="M34.5017 220.751L56.7609 219.247C56.7609 219.247 53.5875 213.231 60.739 206.079C67.8905 198.928 75.1398 203.695 75.1398 203.695C75.1398 203.695 82.1484 181.977 102.603 184.527C123.057 187.076 125.208 204.928 125.208 204.928C125.208 204.928 129.577 200.544 138.481 203.424C147.384 206.305 148.731 217.329 146.527 221.969C146.527 221.969 156.664 223.751 157.341 231.579C157.341 231.579 157.965 224.653 167.508 224.443C177.051 224.232 179.427 234.971 179.427 234.971H190.143" stroke="#263238" stroke-linecap="round" stroke-linejoin="round"/>
<path d="M327.157 85.2176L296.115 81.4125C296.115 81.4125 295.205 72.5238 285.662 72.9675C285.662 72.9675 283.557 64.3421 273.292 61.7326C263.027 59.1232 257.673 69.952 257.673 69.952C255.865 69.4921 253.984 69.4002 252.141 69.6818C250.297 69.9634 248.529 70.6128 246.942 71.5914C242.024 74.6896 243.986 80.6154 243.986 80.6154L189.842 86.0448C189.842 86.0448 269.381 87.8571 319.938 86.1651" stroke="#263238" stroke-linecap="round" stroke-linejoin="round"/>
<path d="M296.152 203.748L242.663 201.341C236.782 183.549 214.538 190.986 214.538 190.986C206.116 172.54 186.496 181.331 186.496 181.331C186.496 181.331 176.494 163.546 156.769 167.268C137.044 170.991 132.991 186.73 132.991 186.73L119.372 187.249" stroke="#263238" stroke-linecap="round" stroke-linejoin="round"/>
<path d="M80.133 189.731L27.4253 191.137" stroke="#263238" stroke-linecap="round" stroke-linejoin="round"/>
<path d="M318.765 243.574C316.028 248.492 313.073 253.305 309.914 257.967C308.485 260.088 307.011 262.163 305.507 264.216C302.815 267.851 299.995 271.38 297.047 274.804C296.11 275.907 295.15 276.998 294.167 278.076C291.931 280.552 289.63 282.954 287.264 285.28L285.94 286.573C273.307 298.877 258.64 308.901 242.588 316.202C212.884 329.542 175.411 332.475 141.135 324.572C139.127 324.105 137.127 323.609 135.119 323.068C133.66 322.667 132.209 322.251 130.765 321.819C129.211 321.353 127.665 320.852 126.125 320.315C125.373 320.067 124.621 319.804 123.869 319.563C120.538 318.39 117.252 317.097 114.041 315.698L112.973 315.224C102.064 310.428 91.881 304.128 82.72 296.507" stroke="#263238" stroke-miterlimit="10"/>
<path d="M293.107 217.111C293.107 217.111 305.425 221.277 303.635 230.684C303.605 230.684 289.4 233.324 293.107 217.111Z" fill="#263238"/>
<path d="M317.389 225.699C317.389 225.699 326.804 217.976 336.941 225.699C336.896 225.714 327.12 235.437 317.389 225.699Z" fill="#263238"/>
<path d="M342.371 200.123C342.371 200.123 339.769 218.923 324.42 209.666C324.42 209.666 333.091 197.574 342.371 200.123Z" fill="#263238"/>
<path d="M324.525 184.797C324.525 184.797 335.881 195.213 323.495 203.53C323.495 203.53 316.216 193.513 324.525 184.797Z" fill="#263238"/>
<path d="M304.229 197.04C304.229 197.04 318.885 199.206 315.509 212.441C315.539 212.433 301.101 209.38 304.229 197.04Z" fill="#263238"/>
<path d="M304.349 245.424C304.349 245.424 301.838 235.783 311.614 223.435C321.39 211.087 326.473 199.89 325.293 190.798" stroke="#263238" stroke-linecap="round" stroke-linejoin="round"/>
<path d="M308.019 201.778C308.019 201.778 315.727 207.342 316.411 216.908" stroke="#263238" stroke-linecap="round" stroke-linejoin="round"/>
<path d="M336.001 206.29C336.001 206.29 329.346 211.787 321.142 208.937" stroke="#263238" stroke-linecap="round" stroke-linejoin="round"/>
<path d="M330.948 226.27C330.948 226.27 316.239 226.752 311.118 224.082" stroke="#263238" stroke-linecap="round" stroke-linejoin="round"/>
<path d="M296.153 222.322C296.153 222.322 300.311 230.293 306.5 231.745" stroke="#263238" stroke-linecap="round" stroke-linejoin="round"/>
<path d="M324.624 199.868C325.408 196.912 325.635 193.837 325.293 190.798" stroke="white" stroke-linecap="round" stroke-linejoin="round"/>
<path d="M308.019 201.778C310.999 204.089 313.348 207.115 314.847 210.576" stroke="white" stroke-linecap="round" stroke-linejoin="round"/>
<path d="M336.001 206.29C333.633 208.099 330.828 209.251 327.872 209.628" stroke="white" stroke-linecap="round" stroke-linejoin="round"/>
<path d="M330.947 226.27C327.335 226.377 323.72 226.284 320.119 225.992" stroke="white" stroke-linecap="round" stroke-linejoin="round"/>
<path d="M296.153 222.322C297.553 224.863 299.371 227.151 301.53 229.09" stroke="white" stroke-linecap="round" stroke-linejoin="round"/>
<path d="M103.265 269.142C103.265 269.142 91.714 275.113 94.9325 284.137C94.9325 284.137 109.371 284.61 103.265 269.142Z" fill="#263238"/>
<path d="M80.5543 281.264C80.5543 281.264 70.0789 275.068 61.2429 284.272C61.2429 284.272 72.4252 292.371 80.5543 281.264Z" fill="#263238"/>
<path d="M52.0083 259.764C52.0083 259.764 57.4001 277.933 71.1918 266.495C71.1918 266.495 60.7992 255.846 52.0083 259.764Z" fill="#263238"/>
<path d="M67.3417 241.927C67.3417 241.927 57.686 253.959 71.1769 260.283C71.1769 260.283 76.8695 249.289 67.3417 241.927Z" fill="#263238"/>
<path d="M89.2474 250.958C89.2474 250.958 75.0872 255.312 80.3813 267.893C80.3813 267.893 94.1956 262.705 89.2474 250.958Z" fill="#263238"/>
<path d="M96.5417 299.966C96.5417 299.966 97.4441 288.912 85.9234 278.158C74.4028 267.405 67.6874 257.102 67.4844 247.958" stroke="#263238" stroke-linecap="round" stroke-linejoin="round"/>
<path d="M86.2093 256.222C86.2093 256.222 79.4413 262.893 80.1933 272.443" stroke="#263238" stroke-linecap="round" stroke-linejoin="round"/>
<path d="M59.2275 264.9C59.2275 264.9 66.6347 269.33 74.3202 265.276" stroke="#263238" stroke-linecap="round" stroke-linejoin="round"/>
<path d="M67.2288 283.888C67.2288 283.888 81.8476 282.151 86.51 278.745" stroke="#263238" stroke-linecap="round" stroke-linejoin="round"/>
<path d="M101.039 274.752C101.039 274.752 98.1962 283.497 92.293 285.866" stroke="#263238" stroke-linecap="round" stroke-linejoin="round"/>
<path d="M69.5148 256.832C68.2953 254.03 67.6068 251.026 67.4844 247.973" stroke="white" stroke-linecap="round" stroke-linejoin="round"/>
<path d="M86.2093 256.222C83.6117 258.961 81.7469 262.31 80.7874 265.961" stroke="white" stroke-linecap="round" stroke-linejoin="round"/>
<path d="M59.2275 264.9C61.8332 266.329 64.7695 267.045 67.7402 266.976" stroke="white" stroke-linecap="round" stroke-linejoin="round"/>
<path d="M67.2288 283.888C70.8155 283.465 74.3756 282.84 77.8921 282.016" stroke="white" stroke-linecap="round" stroke-linejoin="round"/>
<path d="M101.039 274.752C100.043 277.483 98.5909 280.026 96.7449 282.272" stroke="white" stroke-linecap="round" stroke-linejoin="round"/>
<path d="M270.652 267.728C279.804 272.315 284.128 281.399 285.933 286.573L287.257 285.28C289.623 282.948 291.924 280.547 294.16 278.076C295.138 277.003 296.098 275.912 297.04 274.804C297.476 273.06 297.973 271.217 298.544 269.315C299.025 267.668 299.559 265.976 300.138 264.261C300.763 262.404 301.439 260.501 302.184 258.651C302.823 257.035 303.507 255.418 304.244 253.831C304.981 252.244 305.636 250.643 306.132 249.244C308.207 243.371 308.072 239.686 306.974 237.813C305.726 235.693 303.252 235.873 301.349 237.813C300.932 238.253 300.554 238.728 300.221 239.235C298.601 241.867 297.251 244.656 296.19 247.559C294.243 252.515 292.821 257.335 292.821 257.335C292.821 257.335 295.04 241.107 294.416 232.429C293.972 226.338 293.325 220.878 292.16 217.006C290.859 212.802 288.903 210.471 285.843 211.23C281.572 212.291 283.632 222.51 284.986 236.332C285.459 241.137 285.843 246.386 285.843 251.838C285.857 255.642 285.648 259.444 285.219 263.224C285.219 263.224 284.986 262.84 284.587 262.148C282.549 258.606 276.082 246.92 273.63 236.746C270.705 224.593 262.576 229.692 265.178 240.573C267.78 251.455 278.503 257.689 282.474 269.51C282.474 269.51 268.757 256.358 264.215 261.359C261.613 264.186 267.923 266.367 270.652 267.728Z" fill="#92E3A9" stroke="#263238" stroke-linecap="round" stroke-linejoin="round"/>
<path opacity="0.2" d="M270.652 267.728C279.804 272.315 284.128 281.399 285.933 286.573L287.257 285.28C289.623 282.948 291.924 280.547 294.16 278.076C295.138 277.003 296.098 275.912 297.04 274.804C297.476 273.06 297.973 271.217 298.544 269.315C299.025 267.668 299.559 265.976 300.138 264.261C300.763 262.404 301.439 260.501 302.184 258.651C302.823 257.035 303.507 255.418 304.244 253.831C304.981 252.244 305.636 250.643 306.132 249.244C308.207 243.371 308.072 239.686 306.974 237.813C305.726 235.693 303.252 235.873 301.349 237.813C300.932 238.253 300.554 238.728 300.221 239.235C298.601 241.867 297.251 244.656 296.19 247.559C294.243 252.515 292.821 257.335 292.821 257.335C292.821 257.335 295.04 241.107 294.416 232.429C293.972 226.338 293.325 220.878 292.16 217.006C290.859 212.802 288.903 210.471 285.843 211.23C281.572 212.291 283.632 222.51 284.986 236.332C285.459 241.137 285.843 246.386 285.843 251.838C285.857 255.642 285.648 259.444 285.219 263.224C285.219 263.224 284.986 262.84 284.587 262.148C282.549 258.606 276.082 246.92 273.63 236.746C270.705 224.593 262.576 229.692 265.178 240.573C267.78 251.455 278.503 257.689 282.474 269.51C282.474 269.51 268.757 256.358 264.215 261.359C261.613 264.186 267.923 266.367 270.652 267.728Z" fill="black" fill-opacity="0.7" stroke="#263238" stroke-miterlimit="10"/>
<path d="M280.496 248.402C282.31 252.833 283.653 257.443 284.504 262.156C285.892 269.704 286.396 277.389 286.008 285.054L287.204 285.287C289.57 282.956 291.872 280.555 294.107 278.083C295.085 277.01 296.045 275.92 296.988 274.812C299.935 271.393 302.755 267.863 305.448 264.224C306.952 262.171 308.456 260.095 309.854 257.975C306.2 259.531 302.244 262.487 300.078 264.276C299.033 265.119 298.394 265.69 298.394 265.69C299.359 263.206 300.622 260.847 302.154 258.666C307.29 251.146 314.427 245.777 316.75 237.385C319.758 226.601 311.802 221.217 308.441 233.264C308.019 234.768 307.508 236.272 306.937 237.828C302.928 248.582 295.905 259.313 295.905 259.313C297.853 252.75 299.281 246.044 300.176 239.257C302.432 223.157 301.988 207.418 297.168 207.335C293.461 207.267 292.152 210.681 292.115 217.028C292.143 220.702 292.364 224.372 292.776 228.022C294.1 241.325 290.325 260.471 290.325 260.471C290.325 260.471 288.197 242.784 284.941 236.355C284.664 235.781 284.315 235.246 283.903 234.76C280.068 230.542 273.525 231.715 280.496 248.402Z" fill="#92E3A9" stroke="#263238" stroke-linecap="round" stroke-linejoin="round"/>
<path d="M284.256 247.635C290.197 261.72 290.189 282.106 290.189 282.106C290.189 282.106 299.063 241.761 297.318 224.661" stroke="#263238" stroke-linecap="round" stroke-linejoin="round"/>
<path d="M311.148 240.084C311.148 240.084 301.718 259.11 293.265 266.322" stroke="#263238" stroke-linecap="round" stroke-linejoin="round"/>
<path d="M291.362 276.368C292.716 274.27 295.491 271.736 298.529 269.322C300.875 267.465 303.372 265.675 305.5 264.224" stroke="#263238" stroke-linecap="round" stroke-linejoin="round"/>
<path d="M107.167 309.088C108.17 310.171 109.341 311.319 110.679 312.532C111.822 313.555 112.935 314.623 114.026 315.706C117.237 317.104 120.523 318.398 123.854 319.571C124.606 319.834 125.358 320.097 126.11 320.323C127.644 320.824 129.191 321.326 130.75 321.827C132.194 322.263 133.645 322.679 135.104 323.075C137.089 323.617 139.09 324.113 141.12 324.579C142.035 319.993 144.071 315.704 147.046 312.096C149.016 309.765 153.957 305.275 150.498 303.689C144.354 300.876 136.962 318.368 136.962 318.368C135.961 305.937 143.369 295.981 141.474 284.956C139.579 273.932 130.103 272.443 132.201 284.768C133.954 295.086 132.608 308.374 132.126 312.434C132.036 313.224 131.968 313.668 131.968 313.668C130.09 310.367 128.405 306.96 126.922 303.463C124.772 298.455 123.065 293.477 121.606 288.874C117.402 275.624 115.281 265.427 110.935 266.134C107.822 266.645 106.942 269.555 107.4 273.932C107.829 277.963 109.378 283.234 111.371 288.972C114.168 297.064 122.38 310.78 122.651 311.231C122.456 310.998 119.335 307.253 115.718 303.583C113.597 301.335 111.256 299.305 108.732 297.522C108.225 297.19 107.692 296.901 107.137 296.657C104.618 295.627 102.279 296.432 101.964 298.876C101.625 301.034 102.949 304.478 107.167 309.088Z" fill="#92E3A9" stroke="#263238" stroke-linecap="round" stroke-linejoin="round"/>
<path opacity="0.2" d="M107.167 309.088C108.17 310.171 109.341 311.319 110.679 312.532C111.822 313.555 112.935 314.623 114.026 315.706C117.237 317.104 120.523 318.398 123.854 319.571C124.606 319.834 125.358 320.097 126.11 320.323C127.644 320.824 129.191 321.326 130.75 321.827C132.194 322.263 133.645 322.679 135.104 323.075C137.089 323.617 139.09 324.113 141.12 324.579C142.035 319.993 144.071 315.704 147.046 312.096C149.016 309.765 153.957 305.275 150.498 303.689C144.354 300.876 136.962 318.368 136.962 318.368C135.961 305.937 143.369 295.981 141.474 284.956C139.579 273.932 130.103 272.443 132.201 284.768C133.954 295.086 132.608 308.374 132.126 312.434C132.036 313.224 131.968 313.668 131.968 313.668C130.09 310.367 128.405 306.96 126.922 303.463C124.772 298.455 123.065 293.477 121.606 288.874C117.402 275.624 115.281 265.427 110.935 266.134C107.822 266.645 106.942 269.555 107.4 273.932C107.829 277.963 109.378 283.234 111.371 288.972C114.168 297.064 122.38 310.78 122.651 311.231C122.456 310.998 119.335 307.253 115.718 303.583C113.597 301.335 111.256 299.305 108.732 297.522C108.225 297.19 107.692 296.901 107.137 296.657C104.618 295.627 102.279 296.432 101.964 298.876C101.625 301.034 102.949 304.478 107.167 309.088Z" fill="black" fill-opacity="0.7" stroke="#263238" stroke-miterlimit="10"/>
<path d="M92.7064 302.32C97.7899 308.674 105.716 310.976 113.01 315.217L114.078 315.691C117.289 317.089 120.576 318.383 123.907 319.556C124.659 319.819 125.411 320.082 126.163 320.308C127.697 320.809 129.244 321.311 130.803 321.812C132.247 322.248 133.698 322.664 135.157 323.06C133.953 319.571 132.948 316.016 132.149 312.412C131.076 307.743 130.496 302.974 130.419 298.184C130.284 280.091 123.809 281.587 121.944 286.957C121.761 287.568 121.653 288.199 121.621 288.837C121.162 295.92 126.013 312.615 126.133 313.111C125.794 312.622 115.071 296.815 111.093 284.257C110.021 280.74 108.766 277.281 107.333 273.894C104.799 268.074 102.257 265.449 98.8728 266.976C94.436 268.961 100.264 283.588 108.649 297.515C112.143 303.397 116.093 308.997 120.463 314.262C120.139 314.044 109.672 307.043 101.873 298.861C100.753 297.673 99.6775 296.469 98.6999 295.251C90.8866 285.528 85.7279 293.604 92.7064 302.32Z" fill="#92E3A9" stroke="#263238" stroke-linecap="round" stroke-linejoin="round"/>
<path d="M126.14 320.368C125.998 320.15 125.855 319.932 125.704 319.714C122.546 314.901 118.936 309.261 115.658 303.621C111.251 296.101 107.34 288.581 105.603 283.001" stroke="#263238" stroke-linecap="round" stroke-linejoin="round"/>
<path d="M126.652 298.959C126.652 300.463 126.742 301.967 126.877 303.471C127.565 309.708 128.87 315.862 130.773 321.842" stroke="#263238" stroke-linecap="round" stroke-linejoin="round"/>
<path d="M98.9331 302.613C98.9331 302.613 115.101 316.39 125.704 319.691" stroke="#263238" stroke-linecap="round" stroke-linejoin="round"/>
<path d="M123.885 319.571C162.364 333.182 207.793 331.828 242.58 316.209C262.298 307.366 279.661 294.116 294.16 278.083L281.248 264.758H266.96L260.636 244.514C260.636 244.514 160.011 243.062 150.844 243.611C141.677 244.16 134.811 257.147 134.811 257.147L145.941 274.849L131.201 296.718L123.885 319.571Z" fill="#BFBFBF"/>
<path opacity="0.3" d="M161.206 252.402C175.005 254.485 196.979 248.838 196.979 248.838C208.916 252.079 221.315 253.284 233.654 252.402C247.122 251.425 253.273 247.206 255.898 244.446C235.857 244.168 158.815 243.138 150.829 243.611C150.064 243.658 149.307 243.792 148.573 244.01L154.98 245.935C154.98 245.935 147.392 250.319 161.206 252.402Z" fill="black" fill-opacity="0.7"/>
<path opacity="0.3" d="M266.96 264.758C266.96 264.758 242.633 277.038 242.016 276.368C241.399 275.699 225.735 270.578 225.735 270.578L215.824 273.691L225.765 261.088L252.273 260.283L260.666 244.491L266.96 264.758Z" fill="black" fill-opacity="0.7"/>
<path opacity="0.3" d="M130.66 298.387L145.926 307.81L176.449 297.876L145.926 274.872L131.186 296.74L130.66 298.387Z" fill="black" fill-opacity="0.7"/>
<path opacity="0.3" d="M152.37 326.768C183.435 331.723 216.095 328.099 242.61 316.24C262.328 307.396 279.691 294.146 294.19 278.113L281.248 264.758L268.757 291.83H231.511L206.116 313.901L171.599 315.51L152.37 326.768Z" fill="black" fill-opacity="0.7"/>
<path d="M204.123 276.639L187.458 279.226L172.088 272.443L168.914 261.095L147.399 258.9L134.796 257.17" stroke="#263238" stroke-linecap="round" stroke-linejoin="round"/>
<path d="M225.743 261.095L252.251 260.283L260.643 244.514" stroke="#263238" stroke-linecap="round" stroke-linejoin="round"/>
<path d="M231.511 291.845L206.116 313.901L187.857 307.81L189.835 295.078L181.691 295.326" stroke="#263238" stroke-linecap="round" stroke-linejoin="round"/>
<path d="M130.359 298.199L145.926 307.81L147.399 315.51" stroke="#263238" stroke-linecap="round" stroke-linejoin="round"/>
<path d="M123.885 319.571C162.364 333.182 207.793 331.828 242.58 316.209C262.298 307.366 279.661 294.116 294.16 278.083L281.248 264.758H266.96L260.636 244.514C260.636 244.514 160.011 243.062 150.844 243.611C141.677 244.16 134.811 257.147 134.811 257.147L145.941 274.849L131.201 296.718L123.885 319.571Z" stroke="#263238" stroke-miterlimit="10"/>
<path d="M256.876 218.78C258.793 236.234 253.702 244.566 244.024 248.334C233.496 252.425 218.095 251.267 205.83 247.898C203.574 247.266 164.658 233.256 158.506 222.946C153.408 214.389 152.739 205.996 163.665 205.41C168.876 205.132 215.23 217.592 215.23 217.592L219.591 216.005L256.876 218.78Z" fill="#263238"/>
<path d="M230.638 136.128C231.021 136.57 231.317 137.08 231.511 137.632C232.029 139.218 232.327 140.868 232.398 142.535C232.5 144.266 232.5 146.001 232.398 147.731L244.941 147.258C243.671 140.632 247.776 135.376 247.776 135.376C248.07 114.553 228.262 133.519 230.638 136.128Z" fill="white" stroke="#263238" stroke-linecap="round" stroke-linejoin="round"/>
<path d="M244.024 143.911C244.024 143.911 224.585 144.768 220.005 158.951C220.005 158.951 211.259 163.877 213.936 171.607C216.614 179.338 218.99 187.79 218.99 187.79C218.99 187.79 217.411 198.98 218.005 204.733C218.005 204.733 214.997 212.088 216.501 213.659C216.501 213.659 213.177 216.299 213.493 217.028C215.711 222.563 249.717 228.654 258.139 222.48C260.703 220.6 248.198 188.881 249.401 187.279C250.604 185.677 255.65 171.314 255.056 168.93C255.056 168.93 260.703 170.682 260.703 158.951C260.703 147.22 252.476 142.332 244.024 143.911Z" fill="#92E3A9"/>
<path opacity="0.2" d="M260.643 158.921C260.643 170.652 254.996 168.9 254.996 168.9C255.161 169.562 254.89 171.156 254.394 173.119C254.083 172.943 253.781 172.749 253.492 172.54C245.708 166.96 247.408 151.003 229.661 151.694C229.661 151.694 236.113 147.04 242.024 148.686C247.934 150.333 252.92 156.146 254.672 156.064C256.424 155.981 253.687 153.484 253.492 152.198C253.334 151.206 257.033 153.386 260.064 153.928C260.461 155.562 260.655 157.239 260.643 158.921Z" fill="black" fill-opacity="0.7"/>
<path opacity="0.2" d="M237.82 182C237.82 182 236.105 202.214 217.095 207.267C217.553 205.816 218.005 204.703 218.005 204.703C217.41 198.95 218.99 187.76 218.99 187.76C218.99 187.76 216.621 179.315 213.936 171.577C213.891 171.449 213.854 171.322 213.816 171.194C216.415 170.483 218.7 168.921 220.306 166.757C224.427 161.365 237.82 182 237.82 182Z" fill="black" fill-opacity="0.7"/>
<path opacity="0.2" d="M229.661 218.525C224.555 219.163 219.382 219.018 214.32 218.096C213.952 217.796 213.659 217.415 213.463 216.983C213.192 216.306 216.019 213.975 216.471 213.652C220.02 215.344 226.036 217.961 229.661 218.525Z" fill="black" fill-opacity="0.7"/>
<path d="M244.024 143.911C244.024 143.911 224.585 144.768 220.005 158.951C220.005 158.951 211.259 163.877 213.936 171.607C216.614 179.338 218.99 187.79 218.99 187.79C218.99 187.79 217.411 198.98 218.005 204.733C218.005 204.733 214.997 212.088 216.501 213.659C216.501 213.659 213.177 216.299 213.493 217.028C215.711 222.563 249.717 228.654 258.139 222.48C260.703 220.6 248.198 188.881 249.401 187.279C250.604 185.677 255.65 171.314 255.056 168.93C255.056 168.93 260.703 170.682 260.703 158.951C260.703 147.22 252.476 142.332 244.024 143.911Z" stroke="#263238" stroke-linecap="round" stroke-linejoin="round"/>
<path d="M254.996 168.9C251.13 167.614 251.236 154.725 244.024 151.552C236.812 148.378 227.051 151.747 224.314 154.92" stroke="#263238" stroke-linecap="round" stroke-linejoin="round"/>
<path d="M170.012 201.92L158.461 203.5L154.837 206.508L153.588 211.072C153.588 211.072 155.235 210.576 156.438 207.748C156.438 207.748 157.852 206.876 159.273 205.891C161.398 206.629 163.644 206.955 165.891 206.854C168.478 206.854 169.095 209.606 172.433 208.756C178.374 207.207 170.012 201.92 170.012 201.92Z" fill="white" stroke="#263238" stroke-linecap="round" stroke-linejoin="round"/>
<path d="M234.564 156.364C225.788 153.191 216.418 174.412 207.492 186.061C206.206 187.745 181.315 196.769 172.982 199.74L167.628 201.326C167.628 201.326 170.802 208.666 175.366 211.05L179.532 209.854C179.532 209.854 217.802 202.259 222.253 199.371C224.509 197.867 244.061 178.127 244.024 171.976" fill="#92E3A9"/>
<path d="M234.564 156.364C225.788 153.191 216.418 174.412 207.492 186.061C206.206 187.745 181.315 196.769 172.982 199.74L167.628 201.326C167.628 201.326 170.802 208.666 175.366 211.05L179.532 209.854C179.532 209.854 217.802 202.259 222.253 199.371C224.509 197.867 244.061 178.127 244.024 171.976" stroke="#263238" stroke-linecap="round" stroke-linejoin="round"/>
<path d="M191.218 244.807C193.527 237.806 185.42 235.031 181.232 236.039C177.043 237.046 171.328 235.151 166.944 235.813C162.56 236.475 158.003 236.67 159.191 243.611C160.379 250.552 188.752 252.342 191.218 244.807Z" fill="#757575" stroke="#263238" stroke-linecap="round" stroke-linejoin="round"/>
<path d="M175.855 237.069L175.314 238.573C175.314 238.573 170.14 236.986 166.944 237.821C163.748 238.656 162.266 238.468 161.875 239.754C161.484 241.04 160.777 243.619 161.875 244.017C162.973 244.416 172.087 247.025 174.073 246.792L174.862 248.875" stroke="#263238" stroke-linecap="round" stroke-linejoin="round"/>
<path d="M171.125 246.424V248.078" stroke="#263238" stroke-linecap="round" stroke-linejoin="round"/>
<path d="M167.455 245.574L166.944 247.251" stroke="#263238" stroke-linecap="round" stroke-linejoin="round"/>
<path d="M163.515 244.514L162.763 246.416" stroke="#263238" stroke-linecap="round" stroke-linejoin="round"/>
<path d="M161.289 242.686L159.792 242.972" stroke="#263238" stroke-linecap="round" stroke-linejoin="round"/>
<path d="M161.875 239.746L160.537 238.956" stroke="#263238" stroke-linecap="round" stroke-linejoin="round"/>
<path d="M164.109 238.445L163.515 237.069" stroke="#263238" stroke-linecap="round" stroke-linejoin="round"/>
<path d="M167.921 237.069V236.279" stroke="#263238" stroke-linecap="round" stroke-linejoin="round"/>
<path d="M171.599 237.753L172.088 236.279" stroke="#263238" stroke-linecap="round" stroke-linejoin="round"/>
<path d="M181.232 237.016L181.826 238.956C181.826 238.956 184.082 237.137 186.383 238.445C188.684 239.754 188.767 241.731 187.887 244.01C187.007 246.288 182.736 246.416 182.736 246.416L182.142 248.078" stroke="#263238" stroke-linecap="round" stroke-linejoin="round"/>
<path d="M185.969 247.251L185.39 245.935" stroke="#263238" stroke-linecap="round" stroke-linejoin="round"/>
<path d="M189.835 244.514L187.85 244.01" stroke="#263238" stroke-linecap="round" stroke-linejoin="round"/>
<path d="M189.835 239.987L188.143 240.348" stroke="#263238" stroke-linecap="round" stroke-linejoin="round"/>
<path d="M185.676 237.069L185.39 238.001" stroke="#263238" stroke-linecap="round" stroke-linejoin="round"/>
<path d="M176.449 239.987C176.449 239.987 174.667 242.175 175.855 245.935" stroke="#263238" stroke-linecap="round" stroke-linejoin="round"/>
<path d="M181.232 240.348C181.232 240.348 182.322 243.739 181.232 245.461" stroke="#263238" stroke-linecap="round" stroke-linejoin="round"/>
<path d="M180.314 238.956C179.324 239.097 178.315 238.918 177.434 238.445" stroke="#263238" stroke-linecap="round" stroke-linejoin="round"/>
<path d="M180.713 248.078C179.648 247.729 178.499 247.729 177.434 248.078" stroke="#263238" stroke-linecap="round" stroke-linejoin="round"/>
<path d="M172.087 239.746C171.912 241.329 171.831 242.921 171.847 244.514" stroke="#263238" stroke-linecap="round" stroke-linejoin="round"/>
<path d="M167.922 239.348C167.646 240.753 167.49 242.179 167.455 243.611" stroke="#263238" stroke-linecap="round" stroke-linejoin="round"/>
<path d="M164.109 239.746C164.109 239.746 163.673 242.002 163.515 242.829" stroke="#263238" stroke-linecap="round" stroke-linejoin="round"/>
<path d="M184.789 239.987C184.789 239.987 184.729 241.934 184.789 244.01" stroke="#263238" stroke-linecap="round" stroke-linejoin="round"/>
<g opacity="0.3">
<path opacity="0.3" d="M228.322 225.044C228.322 225.044 224.562 226.661 225.149 228.173C225.735 229.684 226.698 231.873 226.698 231.873C226.698 231.873 217.351 235.903 213.41 235.67C209.47 235.437 195.791 230.361 195.791 230.361V223.939L191.625 221.36C191.625 221.36 189.173 229.887 189.406 233.256L193.211 236.264L194.798 232.452" stroke="white" stroke-linecap="round" stroke-linejoin="round"/>
<path opacity="0.3" d="M234.624 226.022C234.624 226.022 229.465 233.309 228.33 234.053C227.194 234.798 217.666 237.595 214.245 237.535C210.823 237.475 196.994 233.023 196.994 233.023" stroke="white" stroke-linecap="round" stroke-linejoin="round"/>
<path opacity="0.3" d="M189.835 222.006C189.835 221.555 181.691 219.179 181.691 219.179C181.725 221.937 181.396 224.688 180.713 227.361L179.578 231.82C179.578 231.82 187.225 235.678 189.835 235.67" stroke="white" stroke-linecap="round" stroke-linejoin="round"/>
<path opacity="0.3" d="M178.878 223.789C178.878 223.789 159.996 215.757 159.003 215.314C158.145 215.068 157.236 215.068 156.378 215.314" stroke="white" stroke-linecap="round" stroke-linejoin="round"/>
<path opacity="0.3" d="M180.713 227.361C180.713 227.361 171.118 223.841 167.689 221.345C164.259 218.848 157.115 217.231 157.115 217.231" stroke="white" stroke-linecap="round" stroke-linejoin="round"/>
<path opacity="0.3" d="M245.904 231.076C245.904 231.076 251.559 231.226 253.642 230.324L254.98 235.663C254.98 235.663 251.115 237.445 249.175 237.009C247.235 236.573 245.904 233.7 245.904 233.7" stroke="white" stroke-linecap="round" stroke-linejoin="round"/>
<path opacity="0.3" d="M244.731 234.948C244.731 234.948 241.61 242.168 237.888 243.611C237.888 243.611 241.753 246.048 247.709 244.514C247.709 244.514 252.852 240.325 253.492 236.279" stroke="white" stroke-linecap="round" stroke-linejoin="round"/>
</g>
<path d="M231.511 137.632C232.029 139.218 232.327 140.868 232.398 142.535C236.549 139.941 235.729 137.632 235.729 137.632H231.511Z" fill="#263238"/>
<path d="M247.13 135.895C262.538 118.411 251.025 108.958 241.798 108.236C221.088 106.627 227.856 123.825 226.668 124.848C224.713 126.525 222.818 127.104 222.75 127.969C222.652 129.262 224.75 130.894 224.75 130.894L223.998 133.669L224.705 133.955C224.705 133.955 224.923 141.339 226.788 141.339C232.36 141.339 235.677 139.542 236.391 137.835" fill="white"/>
<path d="M247.13 135.895C262.538 118.411 251.025 108.958 241.798 108.236C221.088 106.627 227.856 123.825 226.668 124.848C224.713 126.525 222.818 127.104 222.75 127.969C222.652 129.262 224.75 130.894 224.75 130.894L223.998 133.669L224.705 133.955C224.705 133.955 224.923 141.339 226.788 141.339C232.36 141.339 235.677 139.542 236.391 137.835" stroke="#263238" stroke-linecap="round" stroke-linejoin="round"/>
<path d="M227.969 118.291C228.757 118.348 229.51 118.642 230.129 119.135C230.747 119.627 231.203 120.295 231.435 121.05" stroke="#263238" stroke-linecap="round" stroke-linejoin="round"/>
<path d="M228.194 124.322C228.134 125.074 228.345 125.683 228.653 125.705C228.961 125.728 229.27 125.149 229.33 124.412C229.39 123.675 229.179 123.058 228.864 123.036C228.548 123.013 228.247 123.585 228.194 124.322Z" fill="#263238"/>
<path d="M224.698 133.955C224.698 133.955 226.412 134.09 226.781 133.376" stroke="#263238" stroke-linecap="round" stroke-linejoin="round"/>
<path d="M233.631 106.582C233.631 106.582 228.458 106.582 225.577 110.342C224.755 111.439 224.261 112.748 224.153 114.115C224.045 115.482 224.328 116.852 224.968 118.065L226.134 115.756C226.134 115.756 227.901 118.712 232.676 118.674L231.924 115.215C231.924 115.215 233.669 119.065 236.955 120.253L236.481 126.337C236.481 126.337 238.79 123.833 241.181 125.314C245.693 128.097 244.189 135.496 244.189 135.496C244.189 135.496 248.13 137.82 251.649 136.09C255.169 134.361 265.042 122.6 256.763 111.598C248.483 100.596 234.91 105.492 233.631 106.582Z" fill="#263238"/>
<path d="M238.655 125.149C238.655 125.149 243.016 121.284 244.37 124.261C245.723 127.239 243.896 130.277 241.76 132.09C239.625 133.902 235.429 134.18 237.248 131.736" fill="white"/>
<path d="M238.655 125.149C238.655 125.149 243.016 121.284 244.37 124.261C245.723 127.239 243.896 130.277 241.76 132.09C239.625 133.902 235.429 134.18 237.248 131.736" stroke="#263238" stroke-linecap="round" stroke-linejoin="round"/>
<path d="M256.627 117.727C256.627 117.727 260.613 107.199 270.547 108.703C277.367 109.74 272.397 112.793 272.397 112.793C272.397 112.793 279.729 113.974 281.488 119.667C282.376 122.532 276.796 120.058 276.796 120.058C276.796 120.058 279.12 122.193 279.804 126.713C280.278 129.721 276.886 129.39 271.69 124.111C271.69 124.111 272.261 126.292 275.502 128.623C278.744 130.954 270.366 132.165 266.035 126.585C266.099 127.227 266.005 127.874 265.763 128.472C265.521 129.069 265.136 129.599 264.644 130.014C262.967 131.338 264.072 125.645 258.928 123.735C253.785 121.825 256.627 117.727 256.627 117.727Z" fill="#263238"/>
<g opacity="0.2">
<path opacity="0.2" d="M231.511 108.552C231.511 108.552 226.901 110.395 227.969 114.463" stroke="white" stroke-linecap="round" stroke-linejoin="round"/>
<path opacity="0.2" d="M232.684 109.252C232.684 109.252 232.232 114.606 238.038 116.689" stroke="white" stroke-linecap="round" stroke-linejoin="round"/>
<path opacity="0.2" d="M236.782 108.131C236.782 108.131 251.01 105.123 257.086 116.689" stroke="white" stroke-linecap="round" stroke-linejoin="round"/>
<path opacity="0.2" d="M239.655 120.637C239.655 120.637 249.935 124.397 257.703 120.637" stroke="white" stroke-linecap="round" stroke-linejoin="round"/>
<path opacity="0.2" d="M247.408 132.458C247.408 132.458 253.845 129.668 257.093 124.367" stroke="white" stroke-linecap="round" stroke-linejoin="round"/>
<path opacity="0.2" d="M260.643 116.689C260.643 116.689 267.704 111.846 273.292 117.584" stroke="white" stroke-linecap="round" stroke-linejoin="round"/>
<path opacity="0.2" d="M262.132 119.667C262.132 119.667 268.095 119.404 268.719 124.367" stroke="white" stroke-linecap="round" stroke-linejoin="round"/>
</g>
<path d="M216.463 213.629C216.463 213.629 229.247 221.36 244.836 219.179" stroke="#263238" stroke-linecap="round" stroke-linejoin="round"/>
<path d="M244.024 178.721C244.024 178.721 240.497 184.797 235.797 185.324" stroke="#263238" stroke-linecap="round" stroke-linejoin="round"/>
<path d="M249.341 187.264C249.341 187.264 245.22 192.423 242.024 192.22" stroke="#263238" stroke-linecap="round" stroke-linejoin="round"/>
<path d="M171.599 200.153C172.669 203.328 174.727 206.076 177.472 207.997" stroke="#263238" stroke-linecap="round" stroke-linejoin="round"/>
<path d="M207.492 186.061C207.492 186.061 213.049 188.956 217.411 185.309" stroke="#263238" stroke-linecap="round" stroke-linejoin="round"/>
</svg>
