<svg width="280" height="40" viewBox="0 0 280 40" fill="none" xmlns="http://www.w3.org/2000/svg">
<g clip-path="url(#clip0)">
<path d="M194.933 30.6303V14.8957H188.745V13.789H202.373V14.8957H196.186V30.6303H194.933ZM220.871 30.6303H219.447L215.347 25.0004C214.741 25.0806 214.184 25.1208 213.677 25.1208H208.766V30.6303H207.514V13.789H213.677C215.838 13.789 217.532 14.2902 218.76 15.2927C219.988 16.2951 220.601 17.6865 220.601 19.4669C220.601 20.7982 220.254 21.9169 219.558 22.8231C218.862 23.7293 217.868 24.3669 216.574 24.7358L220.871 30.6303ZM208.766 24.0381H213.677C215.51 24.0381 216.91 23.6411 217.876 22.8472C218.842 22.0532 219.325 20.9265 219.325 19.4669C219.325 18.0073 218.842 16.8806 217.876 16.0866C216.91 15.2927 215.51 14.8957 213.677 14.8957H208.766V24.0381ZM240.082 30.6303L237.872 25.8906H227.902L225.717 30.6303H224.367L232.273 13.789H233.526L241.432 30.6303H240.082ZM228.394 24.8561H237.405L232.887 15.1363L228.394 24.8561ZM253.62 30.7505C251.934 30.7505 250.415 30.3816 249.065 29.6438C247.714 28.906 246.65 27.8875 245.873 26.5883C245.095 25.2892 244.706 23.8296 244.706 22.2096C244.706 20.5897 245.095 19.1301 245.873 17.8309C246.65 16.5317 247.714 15.5132 249.065 14.7754C250.415 14.0376 251.934 13.6687 253.62 13.6687C254.864 13.6687 256.01 13.8652 257.057 14.2581C258.105 14.6511 258.997 15.2325 259.734 16.0024L258.948 16.7964C257.573 15.4651 255.813 14.7995 253.669 14.7995C252.228 14.7995 250.919 15.1202 249.74 15.7618C248.561 16.4034 247.636 17.2896 246.965 18.4203C246.294 19.5511 245.959 20.8142 245.959 22.2096C245.959 23.605 246.294 24.8681 246.965 25.9989C247.636 27.1297 248.561 28.0159 249.74 28.6574C250.919 29.299 252.228 29.6198 253.669 29.6198C255.797 29.6198 257.557 28.9461 258.948 27.5988L259.734 28.3928C258.997 29.1627 258.101 29.7481 257.045 30.1491C255.989 30.5501 254.847 30.7505 253.62 30.7505ZM278.478 30.6303L271.087 22.3299L267.231 26.2034V30.6303H265.979V13.789H267.231V24.6155L277.962 13.789H279.484L271.921 21.4397L280 30.6303H278.478Z" fill="#78C89A"/>
<path d="M76.0296 13.789H80.8915V30.6302H76.0296V24.0621H69.3997V30.6302H64.5378V13.789H69.3997V20.1165H76.0296V13.789ZM91.1882 26.9492H100.175V30.6302H86.3754V13.789H99.8562V17.47H91.1882V20.3089H98.8248V23.8697H91.1882V26.9492ZM117.789 30.6302L116.439 27.3582H109.171L107.82 30.6302H102.86L110.448 13.789H115.236L122.848 30.6302H117.789ZM110.595 23.8456H115.015L112.805 18.4564L110.595 23.8456ZM126.269 30.6302V13.789H131.131V26.853H139.332V30.6302H126.269ZM145.357 30.6302V17.5662H140.077V13.789H155.473V17.5662H150.218V30.6302H145.357ZM170.828 13.789H175.69V30.6302H170.828V24.0621H164.198V30.6302H159.337V13.789H164.198V20.1165H170.828V13.789Z" fill="#504678"/>
<path d="M54.3677 32.0742C52.2003 29.9506 49.64 28.3848 46.7585 27.4212C46.2154 27.2391 45.6146 27.355 45.1829 27.7247C44.9946 27.8859 38.0672 34.3389 27.8609 31.6748C27.7189 31.6347 27.5708 31.6142 27.4202 31.6142C27.2696 31.6142 27.1194 31.6347 26.9774 31.6748C16.7711 34.3389 9.8437 27.8859 9.65545 27.7247C9.22328 27.3554 8.62292 27.2395 8.07985 27.4212C5.19831 28.3848 2.63805 29.9506 0.470248 32.0742C0.169449 32.3697 0 32.7707 0 33.1881C0 33.6055 0.16944 34.0061 0.470648 34.3012C4.22143 37.9762 9.20813 40 14.5124 40C19.2982 40 23.8253 38.3528 27.4194 35.3318C31.0134 38.3528 35.5405 40 40.3263 40C45.6306 40 50.6173 37.9762 54.3681 34.3012C54.6693 34.0061 54.8387 33.6055 54.8387 33.1881C54.8383 32.7707 54.6693 32.3697 54.3677 32.0742Z" fill="#504678"/>
<path d="M54.3675 32.0742C52.2001 29.9506 49.6398 28.3848 46.7583 27.4212C46.2152 27.2391 45.6145 27.355 45.1827 27.7247C44.9945 27.8859 38.0671 34.3389 27.8608 31.6748C27.7188 31.6347 27.5706 31.6143 27.42 31.6143L27.4192 35.3318C31.0132 38.3528 35.5403 40.0004 40.3257 40.0004C45.63 40.0004 50.6171 37.9762 54.3679 34.3012C54.6691 34.0061 54.8386 33.6059 54.8386 33.1885C54.8381 32.7707 54.6691 32.3697 54.3675 32.0742Z" fill="#504678"/>
<path d="M52.9428 17.4307C49.5133 16.5377 45.8718 16.4671 42.41 17.2278C41.8497 17.3509 41.3991 17.7575 41.2281 18.2944C40.4812 20.6369 38.6416 24.8404 34.1599 28.2099C32.1329 29.7336 29.8668 30.8572 27.4195 31.5533C24.9718 30.8572 22.7058 29.7336 20.6788 28.2099C16.1971 24.8404 14.3575 20.6369 13.6106 18.2944C13.4395 17.7575 12.989 17.3509 12.4287 17.2278C8.96685 16.4671 5.32574 16.5373 1.89622 17.4307C1.18904 17.5963 0.663574 18.2198 0.663574 18.9629C0.663574 19.1004 0.681979 19.2375 0.718402 19.3706C2.3595 25.3669 6.36564 29.9012 11.034 32.5417C15.6057 35.1284 21.4494 36.2604 27.4195 34.8117C33.3897 36.26 39.2334 35.1284 43.8051 32.5417C48.4734 29.9012 52.4796 25.3669 54.1207 19.3706C54.1571 19.2375 54.1755 19.1004 54.1755 18.9629C54.1751 18.2198 53.6496 17.5963 52.9428 17.4307Z" fill="#5FE1BA"/>
<path d="M52.9425 17.4307C49.513 16.5377 45.8715 16.4671 42.4096 17.2278C41.8494 17.3509 41.3988 17.7575 41.2277 18.2944C40.4808 20.6369 38.6412 24.8405 34.1595 28.2099C32.1325 29.7336 29.8665 30.8572 27.4192 31.5533V34.8117C33.3893 36.26 39.2326 35.1285 43.8048 32.5417C48.4727 29.9012 52.4792 25.3669 54.1203 19.3707C54.1567 19.2375 54.1752 19.1004 54.1752 18.9629C54.1748 18.2198 53.6493 17.5963 52.9425 17.4307Z" fill="#5FE1BA"/>
<path d="M44.5661 6.31507C44.3365 5.47581 43.4558 4.9774 42.5988 5.20235C38.7494 6.21242 35.1959 8.17723 32.3225 10.8843C31.9088 11.274 31.7389 11.8502 31.8764 12.3964C32.3941 14.4498 33.3411 19.5142 30.8811 25.3333C30.0242 27.3602 28.8623 29.2164 27.4193 30.8712C25.9763 29.2164 24.8144 27.3602 23.9574 25.3333C21.4974 19.5142 22.4444 14.4498 22.9621 12.3964C23.0997 11.8502 22.9298 11.274 22.5161 10.8843C19.6427 8.17723 16.0892 6.21242 12.2398 5.20235C11.3828 4.9774 10.5021 5.47581 10.2725 6.31507C8.51888 12.7248 9.75563 19.0198 12.6355 23.907C15.5154 28.7941 20.4604 32.9904 27.0027 34.7086C27.141 34.7451 27.2805 34.7624 27.4185 34.7624C27.5568 34.7624 27.698 34.7451 27.8363 34.7086C34.3782 32.9908 39.3232 28.7941 42.2031 23.907C45.083 19.0198 46.3197 12.7248 44.5661 6.31507Z" fill="#98F1BE"/>
<path d="M44.5661 6.31507C44.3365 5.47581 43.4558 4.9774 42.5988 5.20235C38.7494 6.21242 35.1959 8.17723 32.3225 10.8843C31.9088 11.274 31.7389 11.8502 31.8764 12.3964C32.3941 14.4498 33.3411 19.5142 30.8811 25.3333C30.0242 27.3602 28.8623 29.2164 27.4193 30.8712L27.4185 34.7624C27.5564 34.7624 27.698 34.7451 27.8363 34.7086C34.3782 32.9908 39.3232 28.7941 42.203 23.907C45.0829 19.0198 46.3197 12.7248 44.5661 6.31507Z" fill="#6FC193"/>
<path d="M27.4194 34.7624C26.9934 34.7624 26.5837 34.5964 26.2825 34.3012C22.0775 30.1815 19.1296 24.2294 19.1296 17.3814C19.1296 10.5362 22.0742 4.58443 26.2825 0.461127C26.5837 0.166004 26.9922 0 27.4182 0C27.8442 0 28.2539 0.166004 28.5551 0.461127C32.761 4.58202 35.708 10.533 35.708 17.3814C35.708 24.231 32.7589 30.1827 28.5551 34.3012C28.2539 34.5968 27.8454 34.7624 27.4194 34.7624Z" fill="#92D2AE"/>
<path d="M27.4193 34.7624L27.4185 0C27.8445 0 28.2542 0.166004 28.5554 0.461127C32.7612 4.58202 35.7078 10.533 35.7078 17.3814C35.7078 24.231 32.7588 30.1827 28.5554 34.3012C28.2537 34.5968 27.8453 34.7624 27.4193 34.7624Z" fill="#78C89A"/>
</g>
<defs>
<clipPath id="clip0">
<rect width="280" height="40" fill="white"/>
</clipPath>
</defs>
</svg>
