<svg width="216" height="18" viewBox="0 0 216 18" fill="none" xmlns="http://www.w3.org/2000/svg">
<path d="M130.395 16.9616V1.22701H124.208V0.12029H137.836V1.22701H131.648V16.9616H130.395ZM156.334 16.9616H154.909L150.809 11.3317C150.203 11.4119 149.647 11.4521 149.139 11.4521H144.228V16.9616H142.976V0.12029H149.139C151.3 0.12029 152.994 0.621518 154.222 1.62397C155.45 2.62643 156.064 4.01783 156.064 5.79819C156.064 7.12945 155.716 8.24819 155.02 9.15441C154.324 10.0606 153.33 10.6982 152.037 11.0671L156.334 16.9616ZM144.228 10.3694H149.139C150.972 10.3694 152.372 9.97241 153.338 9.17847C154.304 8.38452 154.787 7.25777 154.787 5.79819C154.787 4.33861 154.304 3.21186 153.338 2.41791C152.372 1.62397 150.972 1.22701 149.139 1.22701H144.228V10.3694ZM175.544 16.9616L173.334 12.2219H163.365L161.179 16.9616H159.829L167.735 0.12029H168.988L176.894 16.9616H175.544ZM163.856 11.1874H172.867L168.349 1.46758L163.856 11.1874ZM189.082 17.0818C187.396 17.0818 185.877 16.7129 184.527 15.9751C183.176 15.2373 182.112 14.2188 181.335 12.9196C180.557 11.6205 180.168 10.1609 180.168 8.54092C180.168 6.92095 180.557 5.46138 181.335 4.1622C182.112 2.86302 183.176 1.8445 184.527 1.10669C185.877 0.368883 187.396 0 189.082 0C190.326 0 191.472 0.19647 192.52 0.589432C193.567 0.982395 194.459 1.56383 195.196 2.33372L194.41 3.12766C193.035 1.7964 191.275 1.13077 189.131 1.13077C187.69 1.13077 186.381 1.45154 185.202 2.09312C184.024 2.73469 183.099 3.62086 182.427 4.75163C181.756 5.8824 181.421 7.1455 181.421 8.54092C181.421 9.93634 181.756 11.1994 182.427 12.3302C183.099 13.461 184.024 14.3472 185.202 14.9887C186.381 15.6303 187.69 15.9511 189.131 15.9511C191.259 15.9511 193.019 15.2774 194.41 13.9301L195.196 14.7241C194.459 15.4939 193.563 16.0794 192.507 16.4804C191.451 16.8813 190.31 17.0818 189.082 17.0818ZM213.94 16.9616L206.549 8.66121L202.694 12.5347V16.9616H201.441V0.12029H202.694V10.9468L213.424 0.12029H214.946L207.384 7.77104L215.462 16.9616H213.94Z" fill="#78C89A"/>
<path d="M11.4918 0.120289H16.3537V16.9616H11.4918V10.3935H4.8619V16.9616H0V0.120289H4.8619V6.44778H11.4918V0.120289ZM26.6504 13.2805H35.6376V16.9616H21.8376V0.120289H35.3183V3.8013H26.6504V6.64027H34.287V10.201H26.6504V13.2805ZM53.2516 16.9616L51.9012 13.6895H44.6329L43.2823 16.9616H38.3222L45.9097 0.120289H50.6979L58.31 16.9616H53.2516ZM46.057 10.1769H50.4769L48.267 4.78773L46.057 10.1769ZM61.7313 16.9616V0.120289H66.5932V13.1843H74.7946V16.9616H61.7313ZM80.8187 16.9616V3.89754H75.5395V0.120289H90.9354V3.89754H85.6806V16.9616H80.8187ZM106.29 0.120289H111.152V16.9616H106.29V10.3935H99.6606V16.9616H94.7988V0.120289H99.6606V6.44778H106.29V0.120289Z" fill="#504678"/>
</svg>
