<?xml version="1.0" encoding="UTF-8" standalone="no"?><!-- Generator: Gravit.io --><svg xmlns="http://www.w3.org/2000/svg" xmlns:xlink="http://www.w3.org/1999/xlink" style="isolation:isolate" viewBox="0 0 1004 720" width="1004pt" height="720pt"><defs><clipPath id="_clipPath_CtGi8HYp3PSgKZx71qUknXMdkP4dB9CQ"><rect width="1004" height="720"/></clipPath></defs><g clip-path="url(#_clipPath_CtGi8HYp3PSgKZx71qUknXMdkP4dB9CQ)"><g><g><path d=" M 0 304.597 L 76.41 304.597 L 118.87 93.397 L 42.45 93.397 L 0 304.597 Z  M 46.66 68.207 L 123.39 68.207 L 136 5.017 L 59.3 5.017 L 46.66 68.207 Z  M 106.13 364.027 L 182.55 364.027 L 229.24 135.847 L 286.55 135.847 L 295 93.397 L 238.79 93.397 L 240.92 83.847 C 244.1 65.847 250.47 45.637 279.12 45.637 C 296.12 45.637 312.03 46.697 327.94 54.127 L 336.44 9.557 C 318.709 3.301 300.052 0.069 281.25 -0.003 C 219.69 -0.003 177.25 36.087 161.32 93.397 L 134.79 93.397 L 126.3 135.847 L 152.83 135.847 L 106.13 364.027 Z " fill="rgb(234,29,44)"/><path d=" M 348.11 308.847 C 438.32 308.847 500.94 227.117 500.94 160.257 C 500.94 110.377 455.3 89.147 410.73 89.147 C 312 89.147 257.9 177.287 257.9 237.737 C 257.9 287.617 304.6 308.847 348.11 308.847 Z  M 590.11 308.847 C 680.32 308.847 742.94 227.117 742.94 160.257 C 742.94 110.377 696.24 89.147 651.66 89.147 C 552.96 89.147 498.84 177.237 498.84 237.737 C 498.84 287.617 546.6 308.847 590.11 308.847 M 867.11 304.597 L 942.46 304.597 L 1004 4.287 L 927.59 4.287 L 909.54 93.437 L 877.7 90.257 C 803.41 90.257 735.49 185.767 735.49 253.697 C 735.49 281.287 753.49 308.887 784.31 308.887 C 827.82 308.887 858.6 287.657 871.31 266.427 L 875.55 266.427 L 867.11 304.597 Z  M 631.48 462.737 C 572.169 511.88 495.989 535.876 419.22 529.597 C 318.39 523.227 246.22 445.747 233.49 364.027 L 237.73 364.027 C 261.08 415.027 317.33 462.737 386.32 470.157 C 456.32 478.647 540.21 446.817 585.84 403.297 L 534.9 364.027 L 688.79 364.027 L 654.79 527.477 L 632.5 463.797 L 631.48 462.737 Z " fill="rgb(234,29,44)"/></g><path d=" M 181.044 665.571 L 181.044 665.571 Q 181.044 676.323 175.332 684.107 L 175.332 684.107 L 175.332 684.107 Q 169.62 691.891 159.316 695.475 L 159.316 695.475 L 172.644 718.995 L 149.46 718.995 L 137.812 698.163 L 126.612 698.163 L 122.468 718.995 L 100.292 718.995 L 115.972 640.595 L 149.46 640.595 L 149.46 640.595 Q 164.468 640.595 172.756 647.203 L 172.756 647.203 L 172.756 647.203 Q 181.044 653.811 181.044 665.571 L 181.044 665.571 Z  M 158.644 667.699 L 158.644 667.699 Q 158.644 662.883 155.396 660.475 L 155.396 660.475 L 155.396 660.475 Q 152.148 658.067 146.324 658.067 L 146.324 658.067 L 134.676 658.067 L 129.972 681.027 L 143.188 681.027 L 143.188 681.027 Q 150.58 681.027 154.612 677.555 L 154.612 677.555 L 154.612 677.555 Q 158.644 674.083 158.644 667.699 L 158.644 667.699 Z  M 250.82 683.939 L 250.82 683.939 Q 250.82 688.307 249.588 693.907 L 249.588 693.907 L 205.012 693.907 L 205.012 693.907 Q 206.132 703.763 218.788 703.763 L 218.788 703.763 L 218.788 703.763 Q 222.82 703.763 226.628 702.531 L 226.628 702.531 L 226.628 702.531 Q 230.436 701.299 233.46 698.835 L 233.46 698.835 L 242.308 712.163 L 242.308 712.163 Q 231.668 720.003 216.436 720.003 L 216.436 720.003 L 216.436 720.003 Q 206.804 720.003 199.468 716.587 L 199.468 716.587 L 199.468 716.587 Q 192.132 713.171 188.156 706.955 L 188.156 706.955 L 188.156 706.955 Q 184.18 700.739 184.18 692.339 L 184.18 692.339 L 184.18 692.339 Q 184.18 682.371 188.828 674.363 L 188.828 674.363 L 188.828 674.363 Q 193.476 666.355 201.82 661.819 L 201.82 661.819 L 201.82 661.819 Q 210.164 657.283 220.916 657.283 L 220.916 657.283 L 220.916 657.283 Q 229.988 657.283 236.764 660.587 L 236.764 660.587 L 236.764 660.587 Q 243.54 663.891 247.18 669.939 L 247.18 669.939 L 247.18 669.939 Q 250.82 675.987 250.82 683.939 L 250.82 683.939 Z  M 219.908 672.403 L 219.908 672.403 Q 214.756 672.403 211.284 675.147 L 211.284 675.147 L 211.284 675.147 Q 207.812 677.891 206.244 682.707 L 206.244 682.707 L 231.22 682.707 L 231.22 682.707 Q 231.332 677.891 228.196 675.147 L 228.196 675.147 L 228.196 675.147 Q 225.06 672.403 219.908 672.403 L 219.908 672.403 Z  M 277.364 720.003 L 277.364 720.003 Q 269.524 720.003 262.3 718.323 L 262.3 718.323 L 262.3 718.323 Q 255.076 716.643 251.044 714.067 L 251.044 714.067 L 258.772 699.171 L 258.772 699.171 Q 262.916 701.747 268.628 703.259 L 268.628 703.259 L 268.628 703.259 Q 274.34 704.771 279.828 704.771 L 279.828 704.771 L 279.828 704.771 Q 289.572 704.771 289.572 700.403 L 289.572 700.403 L 289.572 700.403 Q 289.572 698.611 287.276 697.771 L 287.276 697.771 L 287.276 697.771 Q 284.98 696.931 279.94 696.147 L 279.94 696.147 L 279.94 696.147 Q 273.22 694.915 268.908 693.515 L 268.908 693.515 L 268.908 693.515 Q 264.596 692.115 261.348 688.755 L 261.348 688.755 L 261.348 688.755 Q 258.1 685.395 258.1 679.347 L 258.1 679.347 L 258.1 679.347 Q 258.1 668.819 267.116 663.051 L 267.116 663.051 L 267.116 663.051 Q 276.132 657.283 290.468 657.283 L 290.468 657.283 L 290.468 657.283 Q 296.964 657.283 303.012 658.571 L 303.012 658.571 L 303.012 658.571 Q 309.06 659.859 313.54 662.099 L 313.54 662.099 L 306.036 676.995 L 306.036 676.995 Q 298.42 672.403 288.004 672.403 L 288.004 672.403 L 288.004 672.403 Q 283.076 672.403 280.668 673.691 L 280.668 673.691 L 280.668 673.691 Q 278.26 674.979 278.26 676.995 L 278.26 676.995 L 278.26 676.995 Q 278.26 678.787 280.556 679.627 L 280.556 679.627 L 280.556 679.627 Q 282.852 680.467 288.116 681.475 L 288.116 681.475 L 288.116 681.475 Q 294.612 682.595 298.924 684.051 L 298.924 684.051 L 298.924 684.051 Q 303.236 685.507 306.428 688.867 L 306.428 688.867 L 306.428 688.867 Q 309.62 692.227 309.62 698.051 L 309.62 698.051 L 309.62 698.051 Q 309.62 708.579 300.548 714.291 L 300.548 714.291 L 300.548 714.291 Q 291.476 720.003 277.364 720.003 L 277.364 720.003 Z  M 347.14 676.435 L 343.108 696.371 L 343.108 696.371 Q 342.884 697.939 342.884 698.387 L 342.884 698.387 L 342.884 698.387 Q 342.884 703.539 348.484 703.539 L 348.484 703.539 L 348.484 703.539 Q 351.508 703.539 354.868 701.747 L 354.868 701.747 L 357.556 716.419 L 357.556 716.419 Q 351.284 720.003 341.764 720.003 L 341.764 720.003 L 341.764 720.003 Q 332.356 720.003 326.812 715.299 L 326.812 715.299 L 326.812 715.299 Q 321.268 710.595 321.268 702.195 L 321.268 702.195 L 321.268 702.195 Q 321.268 698.947 321.828 696.483 L 321.828 696.483 L 325.86 676.435 L 316.9 676.435 L 320.148 660.531 L 328.996 660.531 L 332.132 644.739 L 353.412 644.739 L 350.276 660.531 L 364.052 660.531 L 360.916 676.435 L 347.14 676.435 Z  M 418.148 658.291 L 439.428 658.291 L 427.332 718.995 L 407.172 718.995 L 408.404 713.283 L 408.404 713.283 Q 401.124 720.003 390.82 720.003 L 390.82 720.003 L 390.82 720.003 Q 384.1 720.003 378.22 716.699 L 378.22 716.699 L 378.22 716.699 Q 372.34 713.395 368.756 707.123 L 368.756 707.123 L 368.756 707.123 Q 365.172 700.851 365.172 692.339 L 365.172 692.339 L 365.172 692.339 Q 365.172 682.483 369.596 674.475 L 369.596 674.475 L 369.596 674.475 Q 374.02 666.467 381.58 661.875 L 381.58 661.875 L 381.58 661.875 Q 389.14 657.283 398.1 657.283 L 398.1 657.283 L 398.1 657.283 Q 411.316 657.283 416.692 665.571 L 416.692 665.571 L 418.148 658.291 Z  M 398.212 702.867 L 398.212 702.867 Q 404.596 702.867 408.628 698.163 L 408.628 698.163 L 408.628 698.163 Q 412.66 693.459 412.66 685.955 L 412.66 685.955 L 412.66 685.955 Q 412.66 680.579 409.58 677.443 L 409.58 677.443 L 409.58 677.443 Q 406.5 674.307 401.124 674.307 L 401.124 674.307 L 401.124 674.307 Q 394.74 674.307 390.708 679.011 L 390.708 679.011 L 390.708 679.011 Q 386.676 683.715 386.676 691.331 L 386.676 691.331 L 386.676 691.331 Q 386.676 696.707 389.756 699.787 L 389.756 699.787 L 389.756 699.787 Q 392.836 702.867 398.212 702.867 L 398.212 702.867 Z  M 495.652 658.291 L 516.932 658.291 L 504.836 718.995 L 484.676 718.995 L 485.908 712.723 L 485.908 712.723 Q 481.988 716.419 477.116 718.211 L 477.116 718.211 L 477.116 718.211 Q 472.244 720.003 467.092 720.003 L 467.092 720.003 L 467.092 720.003 Q 457.124 720.003 451.244 714.627 L 451.244 714.627 L 451.244 714.627 Q 445.364 709.251 445.364 699.283 L 445.364 699.283 L 445.364 699.283 Q 445.364 695.587 446.148 691.779 L 446.148 691.779 L 452.868 658.291 L 474.148 658.291 L 467.876 689.763 L 467.876 689.763 Q 467.428 691.891 467.428 693.907 L 467.428 693.907 L 467.428 693.907 Q 467.428 701.859 475.604 701.859 L 475.604 701.859 L 475.604 701.859 Q 481.092 701.859 484.676 698.443 L 484.676 698.443 L 484.676 698.443 Q 488.26 695.027 489.604 688.307 L 489.604 688.307 L 495.652 658.291 Z  M 549.412 665.011 L 549.412 665.011 Q 557.028 657.283 571.364 657.283 L 571.364 657.283 L 567.668 676.435 L 567.668 676.435 Q 564.868 676.099 562.852 676.099 L 562.852 676.099 L 562.852 676.099 Q 555.684 676.099 551.372 679.515 L 551.372 679.515 L 551.372 679.515 Q 547.06 682.931 545.604 690.323 L 545.604 690.323 L 539.78 718.995 L 518.5 718.995 L 530.596 658.291 L 550.756 658.291 L 549.412 665.011 Z  M 622.324 658.291 L 643.604 658.291 L 631.508 718.995 L 611.348 718.995 L 612.58 713.283 L 612.58 713.283 Q 605.3 720.003 594.996 720.003 L 594.996 720.003 L 594.996 720.003 Q 588.276 720.003 582.396 716.699 L 582.396 716.699 L 582.396 716.699 Q 576.516 713.395 572.932 707.123 L 572.932 707.123 L 572.932 707.123 Q 569.348 700.851 569.348 692.339 L 569.348 692.339 L 569.348 692.339 Q 569.348 682.483 573.772 674.475 L 573.772 674.475 L 573.772 674.475 Q 578.196 666.467 585.756 661.875 L 585.756 661.875 L 585.756 661.875 Q 593.316 657.283 602.276 657.283 L 602.276 657.283 L 602.276 657.283 Q 615.492 657.283 620.868 665.571 L 620.868 665.571 L 622.324 658.291 Z  M 602.388 702.867 L 602.388 702.867 Q 608.772 702.867 612.804 698.163 L 612.804 698.163 L 612.804 698.163 Q 616.836 693.459 616.836 685.955 L 616.836 685.955 L 616.836 685.955 Q 616.836 680.579 613.756 677.443 L 613.756 677.443 L 613.756 677.443 Q 610.676 674.307 605.3 674.307 L 605.3 674.307 L 605.3 674.307 Q 598.916 674.307 594.884 679.011 L 594.884 679.011 L 594.884 679.011 Q 590.852 683.715 590.852 691.331 L 590.852 691.331 L 590.852 691.331 Q 590.852 696.707 593.932 699.787 L 593.932 699.787 L 593.932 699.787 Q 597.012 702.867 602.388 702.867 L 602.388 702.867 Z  M 695.236 657.283 L 695.236 657.283 Q 705.204 657.283 711.196 662.603 L 711.196 662.603 L 711.196 662.603 Q 717.188 667.923 717.188 677.891 L 717.188 677.891 L 717.188 677.891 Q 717.188 681.587 716.404 685.395 L 716.404 685.395 L 709.684 718.995 L 688.404 718.995 L 694.676 687.411 L 694.676 687.411 Q 695.124 685.507 695.124 683.379 L 695.124 683.379 L 695.124 683.379 Q 695.124 675.315 686.724 675.315 L 686.724 675.315 L 686.724 675.315 Q 681.124 675.315 677.54 678.731 L 677.54 678.731 L 677.54 678.731 Q 673.956 682.147 672.5 688.979 L 672.5 688.979 L 666.452 718.995 L 645.172 718.995 L 657.268 658.291 L 677.428 658.291 L 676.196 664.563 L 676.196 664.563 Q 680.116 660.867 685.044 659.075 L 685.044 659.075 L 685.044 659.075 Q 689.972 657.283 695.236 657.283 L 695.236 657.283 Z  M 755.38 676.435 L 751.348 696.371 L 751.348 696.371 Q 751.124 697.939 751.124 698.387 L 751.124 698.387 L 751.124 698.387 Q 751.124 703.539 756.724 703.539 L 756.724 703.539 L 756.724 703.539 Q 759.748 703.539 763.108 701.747 L 763.108 701.747 L 765.796 716.419 L 765.796 716.419 Q 759.524 720.003 750.004 720.003 L 750.004 720.003 L 750.004 720.003 Q 740.596 720.003 735.052 715.299 L 735.052 715.299 L 735.052 715.299 Q 729.508 710.595 729.508 702.195 L 729.508 702.195 L 729.508 702.195 Q 729.508 698.947 730.068 696.483 L 730.068 696.483 L 734.1 676.435 L 725.14 676.435 L 728.388 660.531 L 737.236 660.531 L 740.372 644.739 L 761.652 644.739 L 758.516 660.531 L 772.292 660.531 L 769.156 676.435 L 755.38 676.435 Z  M 840.052 683.939 L 840.052 683.939 Q 840.052 688.307 838.82 693.907 L 838.82 693.907 L 794.244 693.907 L 794.244 693.907 Q 795.364 703.763 808.02 703.763 L 808.02 703.763 L 808.02 703.763 Q 812.052 703.763 815.86 702.531 L 815.86 702.531 L 815.86 702.531 Q 819.668 701.299 822.692 698.835 L 822.692 698.835 L 831.54 712.163 L 831.54 712.163 Q 820.9 720.003 805.668 720.003 L 805.668 720.003 L 805.668 720.003 Q 796.036 720.003 788.7 716.587 L 788.7 716.587 L 788.7 716.587 Q 781.364 713.171 777.388 706.955 L 777.388 706.955 L 777.388 706.955 Q 773.412 700.739 773.412 692.339 L 773.412 692.339 L 773.412 692.339 Q 773.412 682.371 778.06 674.363 L 778.06 674.363 L 778.06 674.363 Q 782.708 666.355 791.052 661.819 L 791.052 661.819 L 791.052 661.819 Q 799.396 657.283 810.148 657.283 L 810.148 657.283 L 810.148 657.283 Q 819.22 657.283 825.996 660.587 L 825.996 660.587 L 825.996 660.587 Q 832.772 663.891 836.412 669.939 L 836.412 669.939 L 836.412 669.939 Q 840.052 675.987 840.052 683.939 L 840.052 683.939 Z  M 809.14 672.403 L 809.14 672.403 Q 803.988 672.403 800.516 675.147 L 800.516 675.147 L 800.516 675.147 Q 797.044 677.891 795.476 682.707 L 795.476 682.707 L 820.452 682.707 L 820.452 682.707 Q 820.564 677.891 817.428 675.147 L 817.428 675.147 L 817.428 675.147 Q 814.292 672.403 809.14 672.403 L 809.14 672.403 Z  M 866.596 720.003 L 866.596 720.003 Q 858.756 720.003 851.532 718.323 L 851.532 718.323 L 851.532 718.323 Q 844.308 716.643 840.276 714.067 L 840.276 714.067 L 848.004 699.171 L 848.004 699.171 Q 852.148 701.747 857.86 703.259 L 857.86 703.259 L 857.86 703.259 Q 863.572 704.771 869.06 704.771 L 869.06 704.771 L 869.06 704.771 Q 878.804 704.771 878.804 700.403 L 878.804 700.403 L 878.804 700.403 Q 878.804 698.611 876.508 697.771 L 876.508 697.771 L 876.508 697.771 Q 874.212 696.931 869.172 696.147 L 869.172 696.147 L 869.172 696.147 Q 862.452 694.915 858.14 693.515 L 858.14 693.515 L 858.14 693.515 Q 853.828 692.115 850.58 688.755 L 850.58 688.755 L 850.58 688.755 Q 847.332 685.395 847.332 679.347 L 847.332 679.347 L 847.332 679.347 Q 847.332 668.819 856.348 663.051 L 856.348 663.051 L 856.348 663.051 Q 865.364 657.283 879.7 657.283 L 879.7 657.283 L 879.7 657.283 Q 886.196 657.283 892.244 658.571 L 892.244 658.571 L 892.244 658.571 Q 898.292 659.859 902.772 662.099 L 902.772 662.099 L 895.268 676.995 L 895.268 676.995 Q 887.652 672.403 877.236 672.403 L 877.236 672.403 L 877.236 672.403 Q 872.308 672.403 869.9 673.691 L 869.9 673.691 L 869.9 673.691 Q 867.492 674.979 867.492 676.995 L 867.492 676.995 L 867.492 676.995 Q 867.492 678.787 869.788 679.627 L 869.788 679.627 L 869.788 679.627 Q 872.084 680.467 877.348 681.475 L 877.348 681.475 L 877.348 681.475 Q 883.844 682.595 888.156 684.051 L 888.156 684.051 L 888.156 684.051 Q 892.468 685.507 895.66 688.867 L 895.66 688.867 L 895.66 688.867 Q 898.852 692.227 898.852 698.051 L 898.852 698.051 L 898.852 698.051 Q 898.852 708.579 889.78 714.291 L 889.78 714.291 L 889.78 714.291 Q 880.708 720.003 866.596 720.003 L 866.596 720.003 Z " fill="rgb(111,43,45)"/></g></g></svg>