<?xml version="1.0" encoding="UTF-8" standalone="no"?><!-- Generator: Gravit.io --><svg xmlns="http://www.w3.org/2000/svg" xmlns:xlink="http://www.w3.org/1999/xlink" style="isolation:isolate" viewBox="0 0 1004 720" width="1004pt" height="720pt"><defs><clipPath id="_clipPath_zeafkTtvIo4gTk1Mja9F3oLeEI2iDnTU"><rect width="1004" height="720"/></clipPath></defs><g clip-path="url(#_clipPath_zeafkTtvIo4gTk1Mja9F3oLeEI2iDnTU)"><clipPath id="_clipPath_YDBYGTmGwApzw8EkYxsfkS3h1YP1K4CD"><rect x="0" y="0" width="1004" height="720" transform="matrix(1,0,0,1,0,0)" fill="rgb(255,255,255)"/></clipPath><g clip-path="url(#_clipPath_YDBYGTmGwApzw8EkYxsfkS3h1YP1K4CD)"><g><g><g><path d=" M 0 304.597 L 76.41 304.597 L 118.87 93.397 L 42.45 93.397 L 0 304.597 L 0 304.597 Z  M 46.66 68.207 L 123.39 68.207 L 136 5.017 L 59.3 5.017 L 46.66 68.207 L 46.66 68.207 Z  M 106.13 364.027 L 182.55 364.027 L 229.24 135.847 L 286.55 135.847 L 295 93.397 L 238.79 93.397 L 240.92 83.847 C 244.1 65.847 250.47 45.637 279.12 45.637 C 296.12 45.637 312.03 46.697 327.94 54.127 L 336.44 9.557 C 318.709 3.301 300.052 0.069 281.25 -0.003 C 219.69 -0.003 177.25 36.087 161.32 93.397 L 134.79 93.397 L 126.3 135.847 L 152.83 135.847 L 106.13 364.027 L 106.13 364.027 Z " fill="rgb(234,29,44)"/><path d=" M 348.11 308.847 C 438.32 308.847 500.94 227.117 500.94 160.257 C 500.94 110.377 455.3 89.147 410.73 89.147 C 312 89.147 257.9 177.287 257.9 237.737 C 257.9 287.617 304.6 308.847 348.11 308.847 Z  M 590.11 308.847 C 680.32 308.847 742.94 227.117 742.94 160.257 C 742.94 110.377 696.24 89.147 651.66 89.147 C 552.96 89.147 498.84 177.237 498.84 237.737 C 498.84 287.617 546.6 308.847 590.11 308.847 Z  M 867.11 304.597 L 942.46 304.597 L 1004 4.287 L 927.59 4.287 L 909.54 93.437 L 877.7 90.257 C 803.41 90.257 735.49 185.767 735.49 253.697 C 735.49 281.287 753.49 308.887 784.31 308.887 C 827.82 308.887 858.6 287.657 871.31 266.427 L 875.55 266.427 L 867.11 304.597 L 867.11 304.597 Z  M 631.48 462.737 C 572.169 511.88 495.989 535.876 419.22 529.597 C 318.39 523.227 246.22 445.747 233.49 364.027 L 237.73 364.027 C 261.08 415.027 317.33 462.737 386.32 470.157 C 456.32 478.647 540.21 446.817 585.84 403.297 L 534.9 364.027 L 688.79 364.027 L 654.79 527.477 L 632.5 463.797 L 631.48 462.737 L 631.48 462.737 Z " fill="rgb(234,29,44)"/></g></g></g></g><path d=" M 417.692 640.671 L 439.398 640.671 L 423.734 718.993 L 405.496 718.993 L 379.65 676.028 L 371.034 718.993 L 349.328 718.993 L 364.993 640.671 L 383.23 640.671 L 409.188 683.524 L 417.692 640.671 Z  M 493.105 658.349 L 514.364 658.349 L 502.28 718.993 L 482.14 718.993 L 483.371 712.727 L 483.371 712.727 Q 479.454 716.42 474.587 718.21 L 474.587 718.21 L 474.587 718.21 Q 469.72 720 464.573 720 L 464.573 720 L 464.573 720 Q 454.615 720 448.741 714.629 L 448.741 714.629 L 448.741 714.629 Q 442.867 709.259 442.867 699.301 L 442.867 699.301 L 442.867 699.301 Q 442.867 695.608 443.65 691.804 L 443.65 691.804 L 450.363 658.349 L 471.622 658.349 L 465.357 689.79 L 465.357 689.79 Q 464.909 691.916 464.909 693.93 L 464.909 693.93 L 464.909 693.93 Q 464.909 701.874 473.077 701.874 L 473.077 701.874 L 473.077 701.874 Q 478.559 701.874 482.14 698.461 L 482.14 698.461 L 482.14 698.461 Q 485.72 695.049 487.063 688.336 L 487.063 688.336 L 493.105 658.349 Z  M 548.154 676.475 L 544.126 696.392 L 544.126 696.392 Q 543.902 697.958 543.902 698.406 L 543.902 698.406 L 543.902 698.406 Q 543.902 703.552 549.497 703.552 L 549.497 703.552 L 549.497 703.552 Q 552.518 703.552 555.874 701.762 L 555.874 701.762 L 558.56 716.42 L 558.56 716.42 Q 552.294 720 542.783 720 L 542.783 720 L 542.783 720 Q 533.385 720 527.846 715.301 L 527.846 715.301 L 527.846 715.301 Q 522.308 710.601 522.308 702.21 L 522.308 702.21 L 522.308 702.21 Q 522.308 698.965 522.867 696.503 L 522.867 696.503 L 526.895 676.475 L 517.944 676.475 L 521.189 660.587 L 530.028 660.587 L 533.161 644.811 L 554.42 644.811 L 551.287 660.587 L 565.049 660.587 L 561.916 676.475 L 548.154 676.475 Z  M 596.826 665.063 L 596.826 665.063 Q 604.434 657.342 618.756 657.342 L 618.756 657.342 L 615.063 676.475 L 615.063 676.475 Q 612.266 676.14 610.252 676.14 L 610.252 676.14 L 610.252 676.14 Q 603.091 676.14 598.784 679.552 L 598.784 679.552 L 598.784 679.552 Q 594.476 682.965 593.021 690.35 L 593.021 690.35 L 587.203 718.993 L 565.944 718.993 L 578.028 658.349 L 598.168 658.349 L 596.826 665.063 Z  M 615.287 718.993 L 627.371 658.349 L 648.518 658.349 L 636.434 718.993 L 615.287 718.993 Z  M 640.91 651.636 L 640.91 651.636 Q 635.427 651.636 632.07 648.615 L 632.07 648.615 L 632.07 648.615 Q 628.714 645.594 628.714 641.119 L 628.714 641.119 L 628.714 641.119 Q 628.714 635.86 632.462 632.447 L 632.462 632.447 L 632.462 632.447 Q 636.21 629.035 642.364 629.035 L 642.364 629.035 L 642.364 629.035 Q 647.959 629.035 651.315 631.888 L 651.315 631.888 L 651.315 631.888 Q 654.672 634.741 654.672 639.216 L 654.672 639.216 L 654.672 639.216 Q 654.672 644.699 650.868 648.168 L 650.868 648.168 L 650.868 648.168 Q 647.063 651.636 640.91 651.636 L 640.91 651.636 Z " fill="rgb(234,138,29)"/></g></svg>